<svg xmlns="http://www.w3.org/2000/svg" width="1200" height="630" viewBox="0 0 1200 630">
  <defs><linearGradient id="bg" x1="0" y1="0" x2="1" y2="1"><stop offset="0%" stop-color="#0d1117"/><stop offset="100%" stop-color="#1f2937"/></linearGradient></defs>
  <rect width="1200" height="630" fill="url(#bg)"/>
  <circle cx="1040" cy="110" r="190" fill="#1f6feb" opacity="0.15"/>
  <circle cx="130" cy="520" r="230" fill="#238636" opacity="0.12"/>
  <text x="70" y="115" fill="#e6edf3" font-family="Inter,Segoe UI,Arial" font-size="56" font-weight="800">SocialForge AI</text>
  <text x="72" y="165" fill="#8b949e" font-family="Inter,Segoe UI,Arial" font-size="25">Local-first AI command center for social media workflows</text>
  <g transform="translate(80,240)"><rect width="250" height="260" rx="24" fill="#161b22" stroke="#30363d"/><rect width="7" height="260" fill="#58a6ff"/><text x="26" y="46" fill="#7ee787" font-family="Arial" font-size="15" font-weight="700">APPROVED</text><text x="26" y="86" fill="#e6edf3" font-family="Arial" font-size="25" font-weight="700">OIQ Launch Post</text><text x="26" y="126" fill="#c9d1d9" font-family="Arial" font-size="16">Explain local-first AI.</text><text x="26" y="154" fill="#c9d1d9" font-family="Arial" font-size="16">Schedule locally.</text></g>
  <g transform="translate(390,240)"><rect width="250" height="260" rx="24" fill="#161b22" stroke="#8a5a22"/><rect width="7" height="260" fill="#f2cc60"/><text x="26" y="46" fill="#f2cc60" font-family="Arial" font-size="15" font-weight="700">RAW SANDBOX</text><text x="26" y="86" fill="#e6edf3" font-family="Arial" font-size="25" font-weight="700">Creative Angle</text><text x="26" y="126" fill="#c9d1d9" font-family="Arial" font-size="16">Draft-only material.</text><text x="26" y="154" fill="#c9d1d9" font-family="Arial" font-size="16">Must be promoted.</text></g>
  <g transform="translate(700,240)"><rect width="390" height="260" rx="24" fill="#161b22" stroke="#30363d"/><text x="30" y="50" fill="#e6edf3" font-family="Arial" font-size="25" font-weight="700">Workflow Inspector</text><text x="30" y="88" fill="#8b949e" font-family="Arial" font-size="16">Objective → Output → Platform → Preview</text><rect x="30" y="120" width="330" height="80" rx="16" fill="#0d1117" stroke="#30363d"/><text x="50" y="154" fill="#c9d1d9" font-family="Arial" font-size="16">WYSIWYG preview + audit history</text><text x="30" y="235" fill="#7ee787" font-family="Arial" font-size="18" font-weight="700">Trust-first social media workflows</text></g>
</svg>
